<?xml version="1.0" standalone="no"?><!DOCTYPE svg PUBLIC "-//W3C//DTD SVG 1.1//EN" "http://www.w3.org/Graphics/SVG/1.1/DTD/svg11.dtd"><svg t="1711697179025" class="icon" viewBox="0 0 1024 1024" version="1.1" xmlns="http://www.w3.org/2000/svg" p-id="5195" xmlns:xlink="http://www.w3.org/1999/xlink" width="30" height="30"><path d="M885.333333 85.333333H138.666667a53.393333 53.393333 0 0 0-53.333334 53.333334v746.666666a53.393333 53.393333 0 0 0 53.333334 53.333334h746.666666a53.393333 53.393333 0 0 0 53.333334-53.333334V138.666667a53.393333 53.393333 0 0 0-53.333334-53.333334z m-458.666666 618.666667a21.333333 21.333333 0 0 1-42.666667 0V320a21.333333 21.333333 0 0 1 42.666667 0z m213.333333 0a21.333333 21.333333 0 0 1-42.666667 0V320a21.333333 21.333333 0 0 1 42.666667 0z" p-id="5196"></path></svg>