<svg id="组_19542" data-name="组 19542" xmlns="http://www.w3.org/2000/svg" width="24" height="24" viewBox="0 0 24 24">
  <path id="路径_2766" data-name="路径 2766" d="M12,12,0,12A12,12,0,1,0,12,0,12,12,0,0,0,0,12Z" fill="#424a60"/>
  <path id="路径_2767" data-name="路径 2767" d="M109.283,18.793a5.251,5.251,0,0,0-5.222-4.707H101.6a.565.565,0,0,1-.565-.565v-.267a.573.573,0,0,1,.383-.533c2.4-.9,4.046-4.843,3.712-7.627a5.812,5.812,0,0,0-5.082-5.04,5.9,5.9,0,0,0-.635-.036h-.02A5.793,5.793,0,0,0,93.587,5.81c0,2.493,1.575,6.106,3.784,6.922a.557.557,0,0,1,.354.526v.263a.565.565,0,0,1-.565.565H94.7a5.251,5.251,0,0,0-5.222,4.707,12,12,0,0,0,19.806,0Z" transform="translate(-87.38 -0.017)" fill="#fbce9d"/>
  <path id="路径_2768" data-name="路径 2768" d="M276.323,2.752a7.39,7.39,0,0,1,3.912,2.616c-.007-.091-.01-.185-.02-.274a5.811,5.811,0,0,0-5.082-5.04A5.9,5.9,0,0,0,274.5.017h-.02a5.79,5.79,0,0,0-5.714,4.793h0c.074.1.147.21.226.31l.088-.107a2.866,2.866,0,0,1,3.386-.691,2.9,2.9,0,0,0,3.858-1.57Z" transform="translate(-262.465 -0.017)" fill="#6c797a"/>
  <path id="路径_2769" data-name="路径 2769" d="M109.283,604.983a5.251,5.251,0,0,0-5.222-4.707h-.542l-2.483,2.483h-3.31l-1.241-.828-1.419-1.655H94.7a5.251,5.251,0,0,0-5.222,4.707,12,12,0,0,0,19.806,0Z" transform="translate(-87.38 -586.207)" fill="#e7eced"/>
  <path id="路径_2770" data-name="路径 2770" d="M241.931,832.852c.283-.157.559-.326.828-.5v-2.554h-.828Zm-11.586,0v-3.059h-.828v2.554C229.787,832.525,230.062,832.7,230.345,832.852Z" transform="translate(-224.138 -810.345)" fill="#ccd5d6"/>
  <path id="路径_2771" data-name="路径 2771" d="M459.034,670.9h2.483v2.483h-2.483Z" transform="translate(-448.275 -655.173)" fill="#38454f"/>
  <path id="路径_2772" data-name="路径 2772" d="M440.69,782.5a11.863,11.863,0,0,0,3.355,0l-.856-5.673h-1.655l-.844,5.675Z" transform="translate(-430.362 -758.621)" fill="#546a79"/>
  <path id="路径_2773" data-name="路径 2773" d="M304.658,602.262,303,600.276h-2.009a.041.041,0,0,0-.038.055l1.633,4.083,2.069-1.379v-.772Zm6.147-1.986H308.8l-1.655,1.986v.772l2.069,1.379,1.633-4.083a.04.04,0,0,0,0-.038A.041.041,0,0,0,310.805,600.276Z" transform="translate(-293.899 -586.207)" fill="#fff"/>
</svg>
